PathFileType	4	(X/Y/Z)	F:\MotionCapture\20160217\3\Generated_files\EMG_test01-Dynamic.trc
DataRate	CameraRate	NumFrames	NumMarkers	Units	OrigDataRate	OrigDataStartFrame	OrigNumFrames
120.00	120.00	       8	39	mm	120.00	526	       701
Frame#	Time	Top.Head			Front.Head			Rear.Head			R.Shoulder			R.Offset			R.Elbow			R.Wrist			L.Shoulder			L.Elbow			L.Wrist			R.ASIS			L.ASIS			V.Sacral			R.Thigh			R.Knee			R.Shank			R.Ankle			R.Heel			R.Toe			L.Thigh			L.Knee			L.Shank			L.Ankle			L.Heel			L.Toe			R1			R2			R3			R4			R5			R6			R7			L1			L2			L3			L4			L5			L6			L7			V_Mid_ASIS			V_Pelvis_Origin			V_R.Hip_JC			V_L.Hip_JC			V_R.Knee_JC			V_L.Knee_JC			V_R.Ankle_JC			V_L.Ankle_JC			V_Mid_Hip			V_Mid_Shoulder			V_R.Hand			V_L.Hand			V_R.Toe_Offset_Static			V_L.Toe_Offset_Static			V_R.Toe_Offset			V_L.Toe_Offset			
		X1	Y1	Z1	X2	Y2	Z2	X3	Y3	Z3	X4	Y4	Z4	X5	Y5	Z5	X6	Y6	Z6	X7	Y7	Z7	X8	Y8	Z8	X9	Y9	Z9	X10	Y10	Z10	X11	Y11	Z11	X12	Y12	Z12	X13	Y13	Z13	X14	Y14	Z14	X15	Y15	Z15	X16	Y16	Z16	X17	Y17	Z17	X18	Y18	Z18	X19	Y19	Z19	X20	Y20	Z20	X21	Y21	Z21	X22	Y22	Z22	X23	Y23	Z23	X24	Y24	Z24	X25	Y25	Z25	X26	Y26	Z26	X27	Y27	Z27	X28	Y28	Z28	X29	Y29	Z29	X30	Y30	Z30	X31	Y31	Z31	X32	Y32	Z32	X33	Y33	Z33	X34	Y34	Z34	X35	Y35	Z35	X36	Y36	Z36	X37	Y37	Z37	X38	Y38	Z38	X39	Y39	Z39	

526	4.375	968.07813	85.30856	1711.30347	1086.03003	88.73326	1638.90430	865.87537	88.33302	1633.02283	944.18402	-111.42598	1412.91931	797.81927	147.85448	1262.73975	984.38501	-261.39087	1111.56946	1217.79504	-227.99968	998.54535	942.77960	293.86426	1404.67822	830.43579	407.60593	1112.93127	866.74213	412.31073	854.25427	981.85071	-66.61164	929.49512	1017.41980	220.50230	931.00079	777.93823	111.04742	930.35211	955.06586	-4.67234	545.78009	857.14191	-33.64340	451.48370	801.20715	52.83477	227.91609	704.50739	-6.83061	78.09670	637.26129	58.98198	57.98657	845.91284	3.05596	38.36849	1159.64148	185.37521	666.90332	1143.15039	245.40274	488.72073	1190.96008	171.34248	357.84549	1186.49670	239.37889	82.94800	1134.92529	177.62016	46.70207	1326.40869	230.24564	98.75431	894.54858	20.49506	35.02257	854.93567	41.18813	44.16180	759.03070	81.74278	54.67056	685.34839	86.37019	51.57592	665.45782	12.92924	54.70513	738.90491	-17.84452	38.42996	803.57300	-39.25549	34.59911	1368.49426	209.13293	110.77395	1337.00916	194.42665	104.67580	1251.22876	150.65576	88.05074	1171.50989	147.83197	59.99002	1163.07239	217.56544	51.35714	1236.52002	250.55923	62.63111	1293.78284	258.02341	82.44585	
527	4.383	980.57092	85.89927	1708.61035	1098.57751	89.12189	1635.95789	878.70056	88.99610	1630.40515	955.86035	-110.71599	1410.02734	809.68115	148.33208	1260.08606	998.87408	-261.62024	1110.35120	1234.67456	-228.08310	1002.43286	955.18250	294.19058	1402.05347	839.21173	407.32022	1111.70874	868.67419	413.01199	852.22937	992.82477	-66.77977	927.56787	1031.10205	220.44414	927.98053	790.84149	112.65253	927.78149	963.30743	-6.19309	543.59003	864.16309	-34.10491	450.61703	804.34161	51.62941	227.26207	705.27545	-6.43255	78.98908	638.10168	58.82550	59.17551	845.92621	3.02211	38.30750	1171.64026	184.45352	661.66046	1156.72717	244.24867	486.35263	1208.76770	170.65738	357.62698	1217.27344	240.35103	83.57871	1165.84119	179.45126	44.91014	1355.13940	229.07106	104.47960	894.84930	20.16346	34.88954	854.85242	41.30104	44.10863	760.18237	81.14466	55.58991	685.66113	86.85123	52.91066	666.13873	13.28844	56.34075	739.07690	-17.83572	38.80581	803.47620	-39.04824	34.58094	1396.94324	207.26155	117.97409	1365.30750	193.06877	110.61694	1279.94202	150.65245	90.32426	1203.15820	148.89911	59.34476	1194.80090	218.87941	50.52620	1267.07898	250.95082	65.35158	1324.14709	256.92154	87.35889																																																	1094.97974	189.40181	-49.77362	
528	4.392	993.61816	86.05372	1705.80322	1111.10596	89.61291	1633.06580	891.67529	89.72164	1627.55884	967.64484	-110.32001	1407.10498	821.82379	149.25302	1257.10730	1013.60455	-262.12411	1108.63953	1251.07495	-228.51903	1005.76874	967.54041	294.86649	1399.60327	847.80933	406.69693	1110.34607	871.46417	413.37567	850.25726	1004.58740	-67.18863	925.24298	1045.34021	220.04892	924.96979	803.06152	114.11926	925.54932	971.82507	-7.28593	541.40332	870.29205	-34.65654	449.72818	808.08984	51.59993	226.62778	706.20856	-6.14339	79.73798	638.33130	59.39344	61.79208	845.95776	2.94989	38.25333	1183.37476	183.65239	656.54956	1170.54358	243.43970	484.94461	1226.19226	170.45477	357.55093	1246.31641	239.02010	86.35977	1194.26733	180.40862	44.06299	1382.83838	227.97670	109.55900	895.02332	20.04262	34.75232	854.92963	41.21627	44.01275	760.64545	81.80099	56.30963	685.77563	87.11374	54.79433	666.85254	14.02421	57.93101	739.08704	-17.55659	39.26831	803.40881	-38.90224	34.66433	1424.02246	205.46997	124.70771	1394.21179	191.97641	115.41769	1307.31482	150.30161	92.78206	1230.39709	150.05493	60.53054	1224.70105	220.64546	49.54050	1296.87964	250.37617	67.98676	1352.74988	256.41278	90.94806																																																	1123.15405	189.54683	-49.54512	
529	4.400	1006.33539	87.09596	1703.06750	1123.65833	89.71862	1630.20105	904.31732	90.50626	1624.72778	979.45154	-109.83152	1404.03601	834.22705	149.97128	1254.30701	1027.77405	-262.25641	1107.02563	1267.52502	-228.59256	1008.93365	980.28778	295.81894	1396.84229	857.31512	406.62820	1109.01221	874.41656	414.22006	848.44427	1016.02838	-67.68042	922.93390	1059.41455	219.62985	921.90326	816.68799	115.43400	923.03998	979.87714	-8.40580	539.48553	877.63367	-34.84518	448.39627	811.94940	51.23894	226.72693	705.58472	-6.94203	83.33513	639.33246	59.46870	63.90291	845.98303	2.84726	38.24298	1194.86304	182.76695	651.70020	1183.24609	242.80675	482.61880	1242.99365	169.89787	357.68692	1268.23340	241.15938	88.70435	1222.55859	180.71817	43.23005	1408.95374	227.93002	114.64544	895.12250	19.96872	34.62330	855.06140	41.05248	43.95819	761.43542	81.61702	57.25563	687.79126	86.53629	56.28812	667.09735	14.23287	60.62827	739.44604	-17.68687	40.10752	803.38293	-38.89137	34.56566	1449.18774	205.23245	131.32571	1419.47461	191.50098	120.58935	1333.60620	150.21860	95.95460	1257.73364	150.27295	60.80151	1250.14905	220.71529	51.40715	1324.52026	250.73175	70.04577	1381.45251	254.99879	93.48684																																																	1148.03882	188.94125	-49.34254	
530	4.408	1018.82849	87.53656	1700.31006	1136.66589	90.31890	1627.50598	917.30524	91.33546	1622.21802	991.97015	-108.84126	1401.21826	846.47107	151.06242	1251.81128	1042.56494	-262.20352	1104.99854	1283.19263	-228.48825	1011.42035	992.61346	296.61002	1394.25415	866.65814	406.38364	1107.42285	878.30188	414.91876	846.86047	1027.69775	-67.74915	920.89575	1073.80408	218.97134	919.19598	830.25897	117.48821	920.38599	989.31665	-10.00890	537.46484	884.63159	-35.61694	447.39655	815.58215	50.76993	226.49991	706.90942	-7.35250	83.46345	640.22888	59.69924	66.92625	846.17822	2.39628	38.30510	1206.23718	181.49017	647.62872	1196.35437	242.35880	480.83102	1259.47900	169.75346	357.57278	1299.11768	237.79262	87.60242	1248.70728	180.42719	42.66640	1432.76135	227.33577	118.91290	895.43689	19.09905	34.98893	855.10449	40.87108	43.94703	762.38324	81.21904	58.56482	688.40729	86.63263	58.93837	668.01837	14.12874	62.40824	739.49451	-17.89141	41.28944	803.40094	-38.84535	34.49549	1472.64807	204.28967	136.71069	1443.59937	191.61337	125.65630	1358.08667	150.05440	98.67478	1283.11084	150.04088	61.44368	1273.60596	220.57494	53.34285	1350.33215	249.86789	72.35536	1405.78992	254.93900	97.59914	
531	4.417	1031.77502	88.10909	1697.80798	1149.52576	91.06865	1624.79175	929.74628	91.94218	1619.59192	1003.82452	-108.15640	1398.15649	858.90021	152.11765	1248.73804	1055.92310	-262.13977	1103.18530	1298.43555	-228.51117	1013.52502	1005.13184	297.58289	1391.86804	876.39099	405.99161	1105.93579	881.96198	414.98758	844.97614	1039.73975	-67.94696	918.82324	1087.91858	218.62624	916.55872	843.62665	119.77924	917.47491	998.06989	-11.23226	535.10748	892.51526	-35.91375	446.10638	818.95160	50.29277	226.26344	708.62427	-7.64846	85.55536	640.73804	59.36786	70.37717	845.95953	2.82215	38.13474	1217.44617	179.77234	644.35181	1209.73877	241.94249	478.91321	1275.88635	169.51343	357.60733	1320.64063	237.97209	88.94431	1271.78113	179.97221	42.21668	1454.58582	227.65031	122.63525	895.24414	19.38061	34.96881	855.14600	40.72258	43.86867	762.77533	81.15421	59.65867	689.22589	86.17206	60.66896	669.09253	13.74428	64.96900	739.77765	-18.38614	42.50649	803.37000	-38.93560	34.38688	1494.07349	205.36926	141.64175	1464.82446	191.76201	130.12727	1380.75952	150.22386	100.62969	1307.66418	149.66122	61.94007	1298.02087	220.22148	52.07095	1372.86462	249.34917	74.04979	1427.72253	255.07776	100.50057	
532	4.425	1044.61462	88.81670	1695.20593	1162.46899	91.42644	1622.18469	942.70447	92.94836	1617.28882	1015.95258	-106.98476	1395.49011	872.28790	153.19559	1245.70886	1070.75562	-261.39282	1101.43384	1313.40210	-228.26808	1015.19946	1017.91217	298.57321	1389.31641	886.82965	406.15686	1104.47461	887.00586	415.37097	843.33392	1051.93103	-68.23293	916.73004	1102.37732	218.15961	914.27661	857.34155	121.58025	915.08185	1007.12421	-12.82132	533.16772	899.90765	-36.44521	445.31488	822.85175	49.95297	226.41016	710.01056	-8.28490	88.84701	641.71497	58.86720	73.95172	846.00641	2.57254	38.18307	1228.92432	177.59119	641.65454	1223.02917	241.55447	477.00232	1291.61853	169.84285	356.98810	1343.94519	235.68159	87.92528	1294.63708	178.67471	41.71553	1474.44666	228.16301	125.41735	895.18787	19.35543	34.91559	855.20471	40.53450	43.81229	763.36517	80.72554	61.52150	689.64307	85.89805	63.92661	670.20892	13.67279	67.65317	740.53210	-19.12483	43.46229	803.49799	-38.98674	34.36364	1513.93140	205.67775	145.08647	1484.55151	192.37021	133.10829	1401.79016	150.40123	102.28769	1329.35095	148.67184	61.78631	1319.21899	219.32028	51.59205	1394.22974	248.84155	75.09837	1447.94666	255.38019	103.35912	
533	4.433	1057.43225	89.53432	1692.96179	1175.29822	92.11704	1619.71985	955.47894	93.93085	1614.93188	1028.09766	-106.21731	1393.20337	885.44910	154.82642	1242.93298	1083.45129	-260.78287	1099.57935	1327.95447	-228.27037	1016.45471	1030.83398	299.58890	1386.91040	897.65131	406.39255	1103.27832	892.61731	416.36633	842.01447	1063.97937	-68.30317	914.57465	1116.08386	217.77107	911.92816	871.03717	123.68697	912.37238	1016.88818	-14.24769	531.19885	908.20758	-37.15694	444.37006	827.32233	49.23227	226.67024	711.96985	-8.47817	90.71378	643.19910	58.24088	77.85915	846.01984	2.36245	38.11320	1241.04956	175.74199	639.34601	1238.12024	241.60126	475.53296	1306.55090	169.55972	356.23920	1363.36475	235.45674	86.75947	1314.10913	177.74744	40.49278	1493.19055	228.79942	126.72212	895.22943	19.20551	34.80645	854.78711	40.36353	42.87975	764.37543	80.28894	63.16010	690.65173	85.43572	67.22960	671.36047	12.98852	71.18221	741.08472	-19.07492	45.61205	803.80688	-39.30991	34.34644	1532.27161	206.12772	146.83499	1503.44629	192.77472	134.61490	1420.82983	149.74844	102.94565	1348.63000	147.66154	61.17270	1338.61353	218.63678	50.98069	1412.96777	248.79872	75.74921	1466.16943	255.68723	104.33198	
